<svg  viewBox="0 0 300 161" fill="none" xmlns="http://www.w3.org/2000/svg">
<g opacity="0.95">
<rect y="0.5" width="300" height="160" rx="20" fill="url(#paint0_linear_112_52)"/>
<mask id="mask0_112_52" style="mask-type:alpha" maskUnits="userSpaceOnUse" x="0" y="0" width="300" height="161">
<rect opacity="0.8" y="0.5" width="300" height="160" rx="20" fill="url(#paint1_linear_112_52)"/>
</mask>
<g mask="url(#mask0_112_52)">
<path d="M29.0668 37.9498C-13.2216 7.35624 146.347 55.2738 149.112 88.4655C151.877 121.657 102.614 152.855 39.0798 158.148C-24.4545 163.44 37.2079 135.677 34.4429 102.486C31.6779 69.2939 -34.4675 43.2425 29.0668 37.9498Z" fill="#5B7881" fill-opacity="0.31"/>
<path d="M334.356 73.3537C385.797 64.5154 239.963 145.081 214.302 123.848C188.64 102.615 200.785 45.5832 241.428 -3.53682C282.071 -52.6568 258.8 10.8375 284.462 32.0702C310.123 53.3029 374.999 24.2337 334.356 73.3537Z" fill="#63A772"/>
</g>
</g>
<defs>
<linearGradient id="paint0_linear_112_52" x1="14.6782" y1="18.7318" x2="281.074" y2="151.93" gradientUnits="userSpaceOnUse">
<stop offset="0.0729167" stop-color="#138079" stop-opacity="0.85"/>
<stop offset="1" stop-color="#58A760" stop-opacity="0.29"/>
</linearGradient>
<linearGradient id="paint1_linear_112_52" x1="6.16663" y1="0.499984" x2="292.295" y2="160.5" gradientUnits="userSpaceOnUse">
<stop offset="0.0901683" stop-color="#114357"/>
<stop offset="0.319564" stop-color="#305162" stop-opacity="0.888926"/>
<stop offset="0.73435" stop-color="#695354" stop-opacity="0.25053"/>
<stop offset="1" stop-color="#F29492" stop-opacity="0.54"/>
</linearGradient>
</defs>
</svg>
