<svg width="301" height="161" viewBox="0 0 301 161" fill="none" xmlns="http://www.w3.org/2000/svg">
<g opacity="0.95">
<rect x="0.427979" y="0.5" width="300" height="160" rx="20" fill="url(#paint0_linear_131_14)"/>
<mask id="mask0_131_14" style="mask-type:alpha" maskUnits="userSpaceOnUse" x="0" y="0" width="301" height="161">
<rect opacity="0.8" x="0.427979" y="0.5" width="300" height="160" rx="20" fill="url(#paint1_linear_131_14)"/>
</mask>
<g mask="url(#mask0_131_14)">
<path d="M291.215 98.9237C190.344 133.751 134.49 104.583 242.726 -11.7386C286.15 62.6765 231.91 -65.8046 291.215 -11.7386C330.712 162.501 272.39 23.8833 242.726 56.4217C213.062 88.96 312.071 145.724 291.215 98.9237Z" fill="#E46A6A"/>
<path d="M95.8579 107.93C147.299 99.092 2.92976 107.93 -24.1965 158.425C2.92976 84.7869 -37.7131 80.1597 2.92976 31.0397C43.5726 -18.0802 -44.283 122.976 45.9635 66.6468C115.52 51.253 136.501 58.8103 95.8579 107.93Z" fill="#4A768E"/>
</g>
</g>
<defs>
<linearGradient id="paint0_linear_131_14" x1="6.59461" y1="0.499984" x2="292.723" y2="160.5" gradientUnits="userSpaceOnUse">
<stop offset="0.0416667" stop-color="#5433FF"/>
<stop offset="0.494792" stop-color="#20BDFF" stop-opacity="0.25053"/>
<stop offset="0.994341" stop-color="#A5FECB" stop-opacity="0.54"/>
</linearGradient>
<linearGradient id="paint1_linear_131_14" x1="6.59461" y1="0.499984" x2="292.723" y2="160.5" gradientUnits="userSpaceOnUse">
<stop offset="0.0901683" stop-color="#114357"/>
<stop offset="0.319564" stop-color="#305162" stop-opacity="0.888926"/>
<stop offset="0.73435" stop-color="#695354" stop-opacity="0.25053"/>
<stop offset="1" stop-color="#F29492" stop-opacity="0.54"/>
</linearGradient>
</defs>
</svg>
