<svg width="300" height="161" viewBox="0 0 300 161" fill="none" xmlns="http://www.w3.org/2000/svg">
<g opacity="0.95">
<rect y="0.548218" width="300" height="160" rx="20" fill="url(#paint0_linear_112_26)"/>
<mask id="mask0_112_26" style="mask-type:alpha" maskUnits="userSpaceOnUse" x="0" y="0" width="300" height="161">
<rect opacity="0.8" y="0.548218" width="300" height="160" rx="20" fill="url(#paint1_linear_112_26)"/>
</mask>
<g mask="url(#mask0_112_26)">
<path d="M157.065 129.591C69.1277 108.58 62.9282 24.76 92.5921 -7.77832C122.256 -40.3167 205.183 -42.3071 264.488 11.7589C303.985 185.999 246.012 5.57725 216.348 38.1156C186.684 70.654 203.765 89.7056 157.065 129.591Z" fill="url(#paint2_linear_112_26)"/>
<path d="M95.4299 107.978C146.871 99.1402 2.5018 107.978 -24.6245 158.473C2.5018 84.8351 -38.141 80.2079 2.5018 31.088C43.1446 -18.032 -44.711 123.024 45.5356 66.695C115.092 51.3012 136.073 58.8585 95.4299 107.978Z" fill="#B0DBC4" fill-opacity="0.35"/>
</g>
</g>
<defs>
<linearGradient id="paint0_linear_112_26" x1="6.16663" y1="0.548202" x2="292.295" y2="160.548" gradientUnits="userSpaceOnUse">
<stop offset="0.391627" stop-color="#098B83"/>
<stop offset="1" stop-color="#F29492" stop-opacity="0.54"/>
</linearGradient>
<linearGradient id="paint1_linear_112_26" x1="6.16663" y1="0.548202" x2="292.295" y2="160.548" gradientUnits="userSpaceOnUse">
<stop offset="0.0901683" stop-color="#114357"/>
<stop offset="0.319564" stop-color="#305162" stop-opacity="0.888926"/>
<stop offset="0.73435" stop-color="#695354" stop-opacity="0.25053"/>
<stop offset="1" stop-color="#F29492" stop-opacity="0.54"/>
</linearGradient>
<linearGradient id="paint2_linear_112_26" x1="225.579" y1="145.478" x2="42.9541" y2="-27.4407" gradientUnits="userSpaceOnUse">
<stop stop-color="#C8F0D3" stop-opacity="0.51"/>
<stop offset="1" stop-color="#ACC5CB" stop-opacity="0"/>
</linearGradient>
</defs>
</svg>
