<svg  viewBox="0 0 300 160" fill="none" xmlns="http://www.w3.org/2000/svg" opacity="0.95">
<g opacity="0.95">
<rect width="300" height="160" rx="20" fill="url(#paint0_linear_114_132)"/>
<mask id="mask0_114_132" style="mask-type:alpha" maskUnits="userSpaceOnUse" x="0" y="0" width="300" height="160">
<rect opacity="0.8" width="300" height="160" rx="20" fill="url(#paint1_linear_114_132)"/>
</mask>
<g mask="url(#mask0_114_132)">
<path d="M290.787 98.4237C189.916 133.251 134.062 104.083 242.298 -12.2386C285.722 62.1765 231.482 -66.3046 290.787 -12.2386C330.284 162.001 271.962 23.3833 242.298 55.9217C212.634 88.46 311.643 145.224 290.787 98.4237Z" fill="#E46A6A"/>
<path d="M95.4299 107.43C146.871 98.592 2.50178 107.43 -24.6245 157.925C2.50178 84.2869 -38.141 79.6597 2.50178 30.5397C43.1446 -18.5802 -44.711 122.476 45.5356 66.1468C115.092 50.753 136.073 58.3103 95.4299 107.43Z" fill="#C1E9FF"/>
</g>
</g>
<defs>
<linearGradient id="paint0_linear_114_132" x1="6.16663" y1="-1.57049e-05" x2="292.295" y2="160" gradientUnits="userSpaceOnUse">
<stop offset="0.0416667" stop-color="#5433FF"/>
<stop offset="0.494792" stop-color="#20BDFF" stop-opacity="0.25053"/>
<stop offset="0.994341" stop-color="#A5FECB" stop-opacity="0.54"/>
</linearGradient>
<linearGradient id="paint1_linear_114_132" x1="6.16663" y1="-1.57049e-05" x2="292.295" y2="160" gradientUnits="userSpaceOnUse">
<stop offset="0.0901683" stop-color="#114357"/>
<stop offset="0.319564" stop-color="#305162" stop-opacity="0.888926"/>
<stop offset="0.73435" stop-color="#695354" stop-opacity="0.25053"/>
<stop offset="1" stop-color="#F29492" stop-opacity="0.54"/>
</linearGradient>
</defs>
</svg>
