<svg  viewBox="0 0 300 161" fill="none" xmlns="http://www.w3.org/2000/svg">
<g opacity="0.95">
<rect y="0.828003" width="300" height="160" rx="20" fill="url(#paint0_linear_114_2)"/>
<mask id="mask0_114_2" style="mask-type:alpha" maskUnits="userSpaceOnUse" x="0" y="0" width="300" height="161">
<rect opacity="0.8" y="0.828003" width="300" height="160" rx="20" fill="url(#paint1_linear_114_2)"/>
</mask>
<g mask="url(#mask0_114_2)">
<path d="M175.722 134.692C179.177 166.139 103.528 163.057 65.272 157.585C61.3259 149.793 57.9075 134.227 75.8034 134.297C98.1733 134.386 65.5482 87.5978 53.7195 61.7659C41.8907 35.9339 65.7469 37.256 92.5278 53.324C119.309 69.392 131.346 42.4263 113.552 16.5709C95.7575 -9.28461 191.241 -18.7308 253.881 -19.7114C316.522 -20.6921 304.349 40.6533 325.14 62.837C345.931 85.0207 257.846 109.23 214.743 72.2243C171.641 35.2181 171.403 95.3828 175.722 134.692Z" fill="#B1B7B5" fill-opacity="0.56"/>
<ellipse cx="37.8179" cy="30.6229" rx="49.0894" ry="50.2051" fill="url(#paint2_linear_114_2)"/>
</g>
</g>
<defs>
<linearGradient id="paint0_linear_114_2" x1="1.209e-07" y1="17.9676" x2="300" y2="145.579" gradientUnits="userSpaceOnUse">
<stop stop-color="#9027D6"/>
<stop offset="0.614949" stop-color="#FD1D1D" stop-opacity="0.5"/>
<stop offset="1" stop-color="#FCB045" stop-opacity="0.77"/>
</linearGradient>
<linearGradient id="paint1_linear_114_2" x1="22.1721" y1="17.2938" x2="300" y2="145.579" gradientUnits="userSpaceOnUse">
<stop stop-color="#C02425"/>
<stop offset="1" stop-color="#E1BF33" stop-opacity="0.62"/>
</linearGradient>
<linearGradient id="paint2_linear_114_2" x1="37.8179" y1="-19.5822" x2="37.8179" y2="80.828" gradientUnits="userSpaceOnUse">
<stop stop-color="#B4349F"/>
<stop offset="1" stop-color="#FDFF96" stop-opacity="0"/>
</linearGradient>
</defs>
</svg>
